<svg width="33" height="32" viewBox="0 0 33 32" fill="none" xmlns="http://www.w3.org/2000/svg">
<path d="M29.3243 13.39H28.2503V13.3346H16.2503V18.668H23.7857C22.6863 21.7726 19.7323 24.0013 16.2503 24.0013C11.8323 24.0013 8.25033 20.4193 8.25033 16.0013C8.25033 11.5833 11.8323 8.0013 16.2503 8.0013C18.2897 8.0013 20.145 8.77063 21.5577 10.0273L25.329 6.25597C22.9477 4.03664 19.7623 2.66797 16.2503 2.66797C8.88699 2.66797 2.91699 8.63797 2.91699 16.0013C2.91699 23.3646 8.88699 29.3346 16.2503 29.3346C23.6137 29.3346 29.5837 23.3646 29.5837 16.0013C29.5837 15.1073 29.4917 14.2346 29.3243 13.39Z" fill="#FFC107"/>
<path d="M4.4541 9.7953L8.83477 13.008C10.0201 10.0733 12.8908 8.0013 16.2501 8.0013C18.2894 8.0013 20.1448 8.77063 21.5574 10.0273L25.3288 6.25597C22.9474 4.03664 19.7621 2.66797 16.2501 2.66797C11.1288 2.66797 6.68743 5.5593 4.4541 9.7953Z" fill="#FF3D00"/>
<path d="M16.2499 29.3338C19.6939 29.3338 22.8232 28.0158 25.1892 25.8725L21.0625 22.3805C19.6789 23.4327 17.9882 24.0018 16.2499 24.0005C12.7819 24.0005 9.83722 21.7891 8.72788 18.7031L4.37988 22.0531C6.58655 26.3711 11.0679 29.3338 16.2499 29.3338Z" fill="#4CAF50"/>
<path d="M29.324 13.3874H28.25V13.332H16.25V18.6654H23.7853C23.2595 20.143 22.3122 21.4341 21.0607 22.3794L21.0627 22.378L25.1893 25.87C24.8973 26.1354 29.5833 22.6654 29.5833 15.9987C29.5833 15.1047 29.4913 14.232 29.324 13.3874Z" fill="#1976D2"/>
</svg>
