<svg width="101" height="100" viewBox="0 0 101 100" fill="none" xmlns="http://www.w3.org/2000/svg">
<circle cx="50.5" cy="50" r="50" fill="#E9EBED"/>
<rect x="28.5" y="27" width="44" height="47" rx="4" fill="white"/>
<g clip-path="url(#clip0_3526_39331)">
<path d="M48.3047 57.4146L52.3569 61.4613C52.6085 61.7129 52.9202 61.896 53.2624 61.9932C53.6046 62.0905 53.966 62.0986 54.3122 62.017C54.6585 61.9353 54.9781 61.7665 55.2408 61.5265C55.5035 61.2866 55.7005 60.9835 55.8131 60.646L62.4635 40.6762C62.5863 40.3086 62.6043 39.914 62.5154 39.5368C62.4265 39.1596 62.2342 38.8146 61.9602 38.5405C61.6861 38.2665 61.3411 38.0742 60.9639 37.9853C60.5866 37.8964 60.1921 37.9144 59.8245 38.0372L39.8547 44.6932C39.5183 44.8062 39.2162 45.0032 38.9771 45.2654C38.738 45.5276 38.5697 45.8465 38.4881 46.1919C38.4065 46.5373 38.4143 46.8978 38.5107 47.2393C38.6072 47.5808 38.7891 47.8921 39.0394 48.1438L44.1298 53.2398L43.9571 59.6748L48.3047 57.4146Z" stroke="#222222" stroke-width="1.71429" stroke-linecap="round" stroke-linejoin="round"/>
<path d="M61.8675 38.4531L44.1299 53.2397" stroke="#222222" stroke-width="1.71429" stroke-linecap="round" stroke-linejoin="round"/>
</g>
<rect x="20.5" y="22" width="18.7969" height="18.7969" rx="9.39844" fill="#222222"/>
<path fill-rule="evenodd" clip-rule="evenodd" d="M34.5646 28.495C34.8704 28.8009 34.8704 29.2968 34.5646 29.6026L28.6905 35.4767C28.3847 35.7825 27.8888 35.7825 27.5829 35.4767L24.6459 32.5396C24.34 32.2338 24.34 31.7379 24.6459 31.432C24.9518 31.1262 25.4477 31.1262 25.7535 31.432L28.1367 33.8152L33.4569 28.495C33.7628 28.1892 34.2587 28.1892 34.5646 28.495Z" fill="white"/>
<defs>
<clipPath id="clip0_3526_39331">
<rect width="26" height="26" fill="white" transform="translate(37.5 37)"/>
</clipPath>
</defs>
</svg>
