<svg width="17" height="14" viewBox="0 0 17 14" fill="none" xmlns="http://www.w3.org/2000/svg">
<path fill-rule="evenodd" clip-rule="evenodd" d="M14.1191 4.79197C14.3296 4.55678 14.6908 4.53671 14.926 4.74714C15.3779 5.15147 15.7569 5.54246 16.0392 5.84826L16.0435 5.85297L16.0435 5.853C16.3278 6.168 16.4851 6.57724 16.4851 7.00157C16.4851 7.42589 16.3278 7.83514 16.0435 8.15014L16.0379 8.15629L16.0379 8.15625C15.4196 8.82169 14.3999 9.81013 13.1135 10.6354C11.8301 11.4587 10.2424 12.1444 8.49927 12.1444H8.04213C7.72654 12.1444 7.4707 11.8886 7.4707 11.573C7.4707 11.2574 7.72654 11.0016 8.04213 11.0016H8.49927C9.9447 11.0016 11.317 10.4301 12.4964 9.67346C13.6707 8.92013 14.6154 8.00773 15.1974 7.38184C15.2907 7.27719 15.3423 7.14185 15.3423 7.00157C15.3423 6.86102 15.2905 6.72543 15.1969 6.6207C14.9309 6.33266 14.5793 5.97048 14.164 5.59885C13.9288 5.38841 13.9087 5.02716 14.1191 4.79197Z" fill="#222222"/>
<path fill-rule="evenodd" clip-rule="evenodd" d="M1.80143 6.62196C1.70813 6.72661 1.65653 6.86195 1.65653 7.00223C1.65653 7.14323 1.70865 7.27922 1.80285 7.38409C2.78417 8.45908 3.93169 9.36957 5.20163 10.0808C5.47697 10.235 5.57518 10.5833 5.42096 10.8586C5.26675 11.1339 4.91853 11.2321 4.64318 11.0779C3.26595 10.3066 2.02153 9.3191 0.957463 8.15315L0.955332 8.15081L0.955339 8.1508C0.671041 7.8358 0.513672 7.42656 0.513672 7.00223C0.513672 6.57791 0.671041 6.16866 0.955339 5.85366L0.960894 5.84751L0.960938 5.84755C1.57926 5.18211 2.59889 4.19367 3.88528 3.36841C5.16869 2.54506 6.75639 1.85938 8.49954 1.85938H8.51149L8.51149 1.8595C9.86417 1.88777 11.188 2.25574 12.3613 2.92957C12.6349 3.08674 12.7294 3.43601 12.5722 3.70968C12.415 3.98335 12.0658 4.07778 11.7921 3.92061C10.7868 3.34322 9.6526 3.02746 8.4936 3.00224C7.05036 3.0038 5.68021 3.57472 4.50238 4.33034C3.32812 5.08367 2.38338 5.99606 1.80143 6.62196Z" fill="#222222"/>
<path fill-rule="evenodd" clip-rule="evenodd" d="M15.1895 0.311899C15.4127 0.535056 15.4127 0.896864 15.1895 1.12002L2.61807 13.6915C2.39491 13.9146 2.0331 13.9146 1.80995 13.6915C1.58679 13.4683 1.58679 13.1065 1.80995 12.8833L14.3814 0.311899C14.6045 0.088742 14.9663 0.088742 15.1895 0.311899Z" fill="#222222"/>
<path fill-rule="evenodd" clip-rule="evenodd" d="M8.49852 5.28739C8.04429 5.28771 7.60874 5.46828 7.28754 5.78949C6.96633 6.1107 6.78575 6.54625 6.78544 7.00047C6.78767 7.45396 6.9695 7.8881 7.29114 8.20784C7.51497 8.43033 7.51605 8.79213 7.29356 9.01595C7.07107 9.23978 6.70926 9.24086 6.48544 9.01837C5.94889 8.48501 5.64577 7.76062 5.64258 7.00408L5.64258 7.00167C5.64258 6.24391 5.9436 5.51719 6.47942 4.98137C7.01523 4.44555 7.74196 4.14453 8.49972 4.14453H8.50213V4.14454C9.25867 4.14773 9.98306 4.45084 10.5164 4.98739C10.7389 5.21122 10.7378 5.57302 10.514 5.79551C10.2902 6.018 9.92837 6.01692 9.70588 5.7931C9.38615 5.47145 8.952 5.28962 8.49852 5.28739Z" fill="#222222"/>
<path fill-rule="evenodd" clip-rule="evenodd" d="M10.7771 7.65251C11.0495 7.81186 11.1411 8.16187 10.9818 8.43428C10.7275 8.86899 10.3628 9.22876 9.92462 9.47713C9.65007 9.63277 9.30134 9.53637 9.14571 9.26183C8.99007 8.98728 9.08647 8.63855 9.36102 8.48291C9.6239 8.33389 9.84272 8.11803 9.9953 7.8572C10.1547 7.5848 10.5047 7.49315 10.7771 7.65251Z" fill="#222222"/>
</svg>
