<svg width="17" height="16" viewBox="0 0 17 16" fill="none" xmlns="http://www.w3.org/2000/svg">
<path fill-rule="evenodd" clip-rule="evenodd" d="M8.50017 1.30173e-06C7.29624 -0.000685445 6.10768 0.270364 5.02309 0.792949C3.93844 1.31556 2.98574 2.07624 2.236 3.0183C1.48627 3.96035 0.958834 5.05949 0.693018 6.23376C0.427202 7.40803 0.429861 8.62716 0.700797 9.80026C0.971732 10.9734 1.50396 12.0702 2.25779 13.009C3.01163 13.9477 3.96764 14.7043 5.05455 15.2221C6.14147 15.74 7.33126 16.0059 8.53523 15.9999C9.67569 15.9943 10.801 15.7448 11.836 15.2692L15.8269 15.9909C16.0293 16.0275 16.2357 15.9525 16.3674 15.7945C16.4991 15.6366 16.5358 15.42 16.4635 15.2275L15.3183 12.1808C16.0212 11.0342 16.4245 9.72731 16.4886 8.38075C16.5575 6.9353 16.233 5.49823 15.5497 4.22262C14.8665 2.947 13.85 1.8806 12.6085 1.137C11.3672 0.393431 9.94736 0.000480987 8.50033 1.35259e-06M8.49966 1.14286L8.49999 0.57143L8.49981 1.14286C9.74018 1.14324 10.9572 1.48006 12.0213 2.11743C13.0854 2.7548 13.9566 3.66886 14.5423 4.76224C15.128 5.85563 15.4061 7.0874 15.3471 8.32635C15.288 9.56531 14.894 10.7651 14.2071 11.7978C14.1053 11.9508 14.0833 12.1434 14.148 12.3153L15.0394 14.6871L11.8588 14.112C11.7391 14.0903 11.6156 14.1075 11.5062 14.1609C10.579 14.614 9.56154 14.8519 8.52957 14.8571C7.49759 14.8622 6.47778 14.6343 5.54613 14.1904C4.61449 13.7465 3.79506 13.0981 3.14891 12.2934C2.50276 11.4887 2.04657 10.5486 1.81434 9.54308C1.58211 8.53756 1.57983 7.4926 1.80767 6.48608C2.03552 5.47956 2.4876 4.53745 3.13023 3.72997C3.77286 2.92249 4.58946 2.27048 5.51916 1.82253C6.44886 1.37458 7.46767 1.14225 8.49966 1.14286Z" fill="#A7AFB8"/>
</svg>
