<svg width="16" height="17" viewBox="0 0 16 17" fill="none" xmlns="http://www.w3.org/2000/svg">
<path fill-rule="evenodd" clip-rule="evenodd" d="M0.0712891 2.5C0.0712891 2.22386 0.295147 2 0.571289 2H15.4284C15.7046 2 15.9284 2.22386 15.9284 2.5V14.5C15.9284 14.7761 15.7046 15 15.4284 15H0.571289C0.295147 15 0.0712891 14.7761 0.0712891 14.5V2.5ZM1.07129 3V14H14.9284V3H1.07129Z" fill="#4F5F71"/>
<path fill-rule="evenodd" clip-rule="evenodd" d="M0.189181 3.62286C0.367275 3.41182 0.682729 3.38511 0.893768 3.5632L7.5852 9.21006L7.58523 9.21009C7.70121 9.30798 7.84809 9.36169 7.99987 9.36169C8.15165 9.36169 8.29853 9.30798 8.41451 9.21009L8.41455 9.21006L15.106 3.5632C15.317 3.38511 15.6325 3.41182 15.8106 3.62286C15.9887 3.83389 15.9619 4.14935 15.7509 4.32744L9.05951 9.97427C8.76311 10.2245 8.38774 10.3617 7.99987 10.3617C7.612 10.3617 7.23664 10.2245 6.94023 9.97427L0.248832 4.32744C0.0377941 4.14935 0.0110874 3.83389 0.189181 3.62286Z" fill="#4F5F71"/>
</svg>
