<svg width="28" height="27" viewBox="0 0 28 27" fill="none" xmlns="http://www.w3.org/2000/svg">
<path d="M13.8456 3.73527L12.9408 0.904001C12.933 0.876636 12.9311 0.847641 12.9352 0.819317C12.9393 0.790993 12.9493 0.764119 12.9643 0.740829C12.9794 0.71754 12.9991 0.698476 13.0219 0.68515C13.0448 0.671824 13.0701 0.664604 13.0959 0.664062H14.9039C14.9301 0.664423 14.9558 0.671666 14.979 0.6852C15.0021 0.698734 15.0221 0.718174 15.0372 0.741933C15.0524 0.765691 15.0622 0.793095 15.066 0.821903C15.0698 0.850712 15.0674 0.880109 15.059 0.907692L14.1575 3.73527C14.1459 3.7709 14.1247 3.80169 14.0968 3.82345C14.0689 3.8452 14.0356 3.85687 14.0015 3.85687C13.9675 3.85687 13.9342 3.8452 13.9063 3.82345C13.8784 3.80169 13.8572 3.7709 13.8456 3.73527Z" fill="#222222"/>
<path d="M10.6981 4.23344L8.13283 3.43334C8.10844 3.42474 8.08618 3.40998 8.06778 3.39021C8.04937 3.37045 8.03532 3.34622 8.02673 3.31941C8.01814 3.2926 8.01523 3.26395 8.01824 3.23568C8.02125 3.20742 8.0301 3.18032 8.04408 3.15649L9.09244 1.51383C9.10781 1.4902 9.12801 1.47096 9.15137 1.45769C9.17472 1.44442 9.20057 1.4375 9.2268 1.4375C9.25302 1.4375 9.27887 1.44442 9.30223 1.45769C9.32558 1.47096 9.34578 1.4902 9.36116 1.51383L10.8781 3.95013C10.8975 3.98125 10.9079 4.01828 10.9077 4.05617C10.9076 4.09406 10.897 4.13099 10.8773 4.16194C10.8577 4.19288 10.8299 4.21634 10.7979 4.22913C10.7658 4.24193 10.731 4.24343 10.6981 4.23344Z" fill="#222222"/>
<path d="M17.1221 3.95404L18.6358 1.51774C18.6511 1.4941 18.6713 1.47486 18.6947 1.46159C18.7181 1.44832 18.7439 1.44141 18.7701 1.44141C18.7964 1.44141 18.8222 1.44832 18.8456 1.46159C18.8689 1.47486 18.8891 1.4941 18.9045 1.51774L19.9562 3.15762C19.9701 3.18151 19.9789 3.20868 19.9819 3.23699C19.9849 3.26531 19.9819 3.294 19.9732 3.32082C19.9645 3.34764 19.9504 3.37186 19.9319 3.39158C19.9134 3.41129 19.891 3.42598 19.8666 3.43448L17.3013 4.23458C17.2688 4.2437 17.2347 4.24171 17.2033 4.22885C17.1719 4.216 17.1448 4.19289 17.1254 4.16255C17.106 4.13221 17.0953 4.09606 17.0948 4.05885C17.0942 4.02164 17.1037 3.9851 17.1221 3.95404Z" fill="#222222"/>
<path d="M23.2876 6.59766V12.7899" stroke="#222222" stroke-width="1.1" stroke-linecap="round" stroke-linejoin="round"/>
<path d="M21.0728 12.7899V6.59766" stroke="#222222" stroke-width="1.1" stroke-linecap="round" stroke-linejoin="round"/>
<path d="M25.5039 7.625V13.6327" stroke="#222222" stroke-width="1.1" stroke-linecap="round" stroke-linejoin="round"/>
<path d="M23.2876 12.5253V7.625" stroke="#222222" stroke-width="1.1" stroke-linecap="round" stroke-linejoin="round"/>
<path d="M25.5039 9.21484V13.1664" stroke="#222222" stroke-width="1.1" stroke-linecap="round" stroke-linejoin="round"/>
<path d="M18.8559 7.80859V14.6468C18.8559 15.47 18.5598 15.6047 18.2164 15.4488C17.849 15.2818 17.4119 14.5675 16.5809 14.4623C15.005 14.262 14.8391 16.0219 15.37 16.4002C16.0486 16.9204 16.7012 17.4814 17.3248 18.0807C18.0713 18.7932 18.2164 19.0903 18.8559 19.7418C19.4954 20.3934 19.4962 20.7874 19.4962 20.7874V25.0196C21.3258 25.9073 24.2362 25.8547 25.9182 25.0196V20.4321C26.9068 19.839 27.434 18.903 27.4998 17.6239V9.21223" stroke="#222222" stroke-width="1.1" stroke-linecap="round" stroke-linejoin="round"/>
<path d="M21.0728 12.2475V7.80859" stroke="#222222" stroke-width="1.1" stroke-linecap="round" stroke-linejoin="round"/>
<path d="M25.5039 10.3515V9.19335C25.5039 8.89964 25.6088 8.61797 25.7954 8.41029C25.9821 8.20261 26.2352 8.08594 26.4992 8.08594V8.08594C26.7631 8.08594 27.0163 8.20261 27.2029 8.41029C27.3896 8.61797 27.4944 8.89964 27.4944 9.19335V10.3515" stroke="#222222" stroke-width="1.1" stroke-linecap="round" stroke-linejoin="round"/>
<path d="M23.2876 9.01106V7.61757C23.2874 7.45551 23.3159 7.29499 23.3715 7.14519C23.4271 6.99539 23.5086 6.85926 23.6116 6.74458C23.7145 6.62989 23.8367 6.53891 23.9712 6.47684C24.1058 6.41476 24.25 6.38281 24.3957 6.38281V6.38281C24.5412 6.38281 24.6853 6.4147 24.8197 6.47666C24.9541 6.53862 25.0763 6.62944 25.1792 6.74392C25.2821 6.85841 25.3637 6.99433 25.4194 7.14391C25.4751 7.29349 25.5037 7.45382 25.5037 7.61573V9.00922" stroke="#222222" stroke-width="1.1" stroke-linecap="round" stroke-linejoin="round"/>
<path d="M21.0728 9.01176V6.58838C21.0728 6.26155 21.1894 5.9481 21.397 5.71691C21.6046 5.48572 21.8863 5.35571 22.18 5.35547V5.35547C22.4739 5.35547 22.7557 5.48536 22.9635 5.71658C23.1713 5.9478 23.2881 6.26139 23.2881 6.58838V9.01176" stroke="#222222" stroke-width="1.1" stroke-linecap="round" stroke-linejoin="round"/>
<path d="M18.8569 10.2227V7.79932C18.8569 7.47265 18.9734 7.15933 19.1809 6.92817C19.3883 6.69701 19.6698 6.5669 19.9633 6.56641V6.56641C20.1089 6.56641 20.2529 6.5983 20.3874 6.66026C20.5218 6.72222 20.644 6.81303 20.7469 6.92752C20.8498 7.042 20.9314 7.17792 20.9871 7.3275C21.0427 7.47709 21.0714 7.63741 21.0714 7.79932V10.2227" stroke="#222222" stroke-width="1.1" stroke-linecap="round" stroke-linejoin="round"/>
<path d="M4.71143 6.59766V12.7899" stroke="#222222" stroke-width="1.1" stroke-linecap="round" stroke-linejoin="round"/>
<path d="M6.92773 12.7899V6.59766" stroke="#222222" stroke-width="1.1" stroke-linecap="round" stroke-linejoin="round"/>
<path d="M2.49561 7.625V13.6327" stroke="#222222" stroke-width="1.1" stroke-linecap="round" stroke-linejoin="round"/>
<path d="M4.71143 12.5253V7.625" stroke="#222222" stroke-width="1.1" stroke-linecap="round" stroke-linejoin="round"/>
<path d="M2.49561 9.21484V13.1664" stroke="#222222" stroke-width="1.1" stroke-linecap="round" stroke-linejoin="round"/>
<path d="M9.14393 7.80859V14.6468C9.14393 15.47 9.44003 15.6047 9.78339 15.4488C10.1508 15.2818 10.5879 14.5675 11.419 14.4623C12.9948 14.262 13.1607 16.0219 12.6299 16.4002C11.951 16.9195 11.2982 17.4796 10.6742 18.078C9.92771 18.7904 9.78256 19.0875 9.1431 19.7391C8.50364 20.3906 8.50364 20.7874 8.50364 20.7874V25.0196C6.674 25.9073 3.76366 25.8547 2.08165 25.0196V20.4321C1.09302 19.839 0.565799 18.903 0.5 17.6239V9.21223" stroke="#222222" stroke-width="1.1" stroke-linecap="round" stroke-linejoin="round"/>
<path d="M6.92773 12.2475V7.80859" stroke="#222222" stroke-width="1.1" stroke-linecap="round" stroke-linejoin="round"/>
<path d="M2.4964 10.3515V9.19335C2.4964 8.89964 2.39154 8.61797 2.20489 8.41029C2.01824 8.20261 1.76509 8.08594 1.50113 8.08594C1.23717 8.08594 0.984017 8.20261 0.797368 8.41029C0.610718 8.61797 0.505859 8.89964 0.505859 9.19335V10.3515" stroke="#222222" stroke-width="1.1" stroke-linecap="round" stroke-linejoin="round"/>
<path d="M4.71174 9.01106V7.61757C4.71196 7.45551 4.68346 7.29499 4.62787 7.14519C4.57229 6.99539 4.4907 6.85926 4.38779 6.74458C4.28487 6.62989 4.16264 6.53891 4.0281 6.47684C3.89355 6.41476 3.74933 6.38281 3.60368 6.38281V6.38281C3.45802 6.38281 3.3138 6.41476 3.17925 6.47684C3.04471 6.53891 2.92248 6.62989 2.81957 6.74458C2.71665 6.85926 2.63506 6.99539 2.57948 7.14519C2.52389 7.29499 2.49539 7.45551 2.49561 7.61757V9.01106" stroke="#222222" stroke-width="1.1" stroke-linecap="round" stroke-linejoin="round"/>
<path d="M6.92756 9.01176V6.58838C6.92756 6.26139 6.81082 5.9478 6.60302 5.71658C6.39521 5.48536 6.11337 5.35547 5.81949 5.35547V5.35547C5.52562 5.35547 5.24377 5.48536 5.03597 5.71658C4.82817 5.9478 4.71143 6.26139 4.71143 6.58838V9.01176" stroke="#222222" stroke-width="1.1" stroke-linecap="round" stroke-linejoin="round"/>
<path d="M9.14387 10.2227V7.79932C9.14387 7.47233 9.02713 7.15873 8.81933 6.92752C8.61152 6.6963 8.32968 6.56641 8.0358 6.56641V6.56641C7.74193 6.56641 7.46008 6.6963 7.25228 6.92752C7.04448 7.15873 6.92773 7.47233 6.92773 7.79932V10.2227" stroke="#222222" stroke-width="1.1" stroke-linecap="round" stroke-linejoin="round"/>
</svg>
