<svg width="24" height="29" viewBox="0 0 24 21" fill="none" xmlns="http://www.w3.org/2000/svg">
<path d="M21.1212 2.65951C20.0246 1.54189 18.5376 0.914062 16.987 0.914062C15.4365 0.914062 13.9494 1.54189 12.8528 2.65951L11.9761 3.55431L11.0993 2.65951C9.99846 1.56316 8.51811 0.953468 6.97928 0.96267C5.44044 0.971873 3.96721 1.59922 2.87907 2.70866C1.79093 3.8181 1.17563 5.32019 1.1666 6.88915C1.15758 8.45811 1.75556 9.96744 2.83086 11.0898L3.70847 11.9837L11.9761 20.4141L20.2436 11.9837L21.1212 11.0898C22.2174 9.97173 22.8332 8.45555 22.8332 6.87466C22.8332 5.29378 22.2174 3.7776 21.1212 2.65951V2.65951Z" stroke="#222222" stroke-width="1.1" stroke-linecap="round" stroke-linejoin="round"/>
</svg>
