<svg width="56" height="56" viewBox="0 0 56 56" fill="none" xmlns="http://www.w3.org/2000/svg">
<rect width="56" height="56" rx="28" fill="#FAFAFB"/>
<path d="M28.0002 27.5326C30.5775 27.5326 32.6668 25.4432 32.6668 22.8659C32.6668 20.2886 30.5775 18.1992 28.0002 18.1992C25.4228 18.1992 23.3335 20.2886 23.3335 22.8659C23.3335 25.4432 25.4228 27.5326 28.0002 27.5326Z" stroke="#222222" stroke-width="1.5" stroke-linecap="round" stroke-linejoin="round"/>
<path d="M21 39.1992V36.8659C21 35.6282 21.4917 34.4412 22.3668 33.5661C23.242 32.6909 24.429 32.1992 25.6667 32.1992H30.3333C31.571 32.1992 32.758 32.6909 33.6332 33.5661C34.5083 34.4412 35 35.6282 35 36.8659V39.1992" stroke="#222222" stroke-width="1.5" stroke-linecap="round" stroke-linejoin="round"/>
</svg>
