<svg width="33" height="32" viewBox="0 0 33 32" fill="none" xmlns="http://www.w3.org/2000/svg">
<path d="M24.1063 16.7406C24.0938 14.6094 25.0594 13.0031 27.0094 11.8188C25.9187 10.2563 24.2687 9.39687 22.0938 9.23125C20.0344 9.06875 17.7812 10.4312 16.9562 10.4312C16.0844 10.4312 14.0906 9.2875 12.5219 9.2875C9.28438 9.3375 5.84375 11.8687 5.84375 17.0187C5.84375 18.5406 6.12187 20.1125 6.67812 21.7313C7.42187 23.8625 10.1031 29.0844 12.9 29C14.3625 28.9656 15.3969 27.9625 17.3 27.9625C19.1469 27.9625 20.1031 29 21.7344 29C24.5562 28.9594 26.9813 24.2125 27.6875 22.075C23.9031 20.2906 24.1063 16.85 24.1063 16.7406ZM20.8219 7.20937C22.4062 5.32812 22.2625 3.61563 22.2156 3C20.8156 3.08125 19.1969 3.95313 18.275 5.025C17.2594 6.175 16.6625 7.59687 16.7906 9.2C18.3031 9.31562 19.6844 8.5375 20.8219 7.20937Z" fill="black"/>
</svg>
