<svg width="39" height="24" viewBox="0 0 39 24" fill="none" xmlns="http://www.w3.org/2000/svg">
<path d="M24.6655 2.56641H14.1655V21.4352H24.6655V2.56641Z" fill="#FF5F00"/>
<path d="M14.8324 12C14.8307 10.1828 15.2425 8.38904 16.0366 6.75451C16.8306 5.11998 17.9861 3.68753 19.4157 2.5656C17.6454 1.17415 15.5194 0.308826 13.2806 0.0685353C11.0418 -0.171756 8.78059 0.222674 6.75538 1.20676C4.73017 2.19084 3.02268 3.72488 1.82808 5.63351C0.633492 7.54213 0 9.74835 0 12C0 14.2516 0.633492 16.4579 1.82808 18.3665C3.02268 20.2751 4.73017 21.8092 6.75538 22.7932C8.78059 23.7773 11.0418 24.1718 13.2806 23.9315C15.5194 23.6912 17.6454 22.8258 19.4157 21.4344C17.9862 20.3125 16.8306 18.88 16.0366 17.2455C15.2425 15.611 14.8307 13.8172 14.8324 12Z" fill="#EB001B"/>
<path d="M38.8306 12C38.8307 14.2516 38.1973 16.4578 37.0027 18.3665C35.8082 20.2751 34.1008 21.8091 32.0756 22.7932C30.0504 23.7773 27.7892 24.1718 25.5505 23.9315C23.3117 23.6912 21.1857 22.8259 19.4155 21.4344C20.8438 20.3113 21.9984 18.8787 22.7923 17.2444C23.5863 15.6101 23.9988 13.8169 23.9988 12C23.9988 10.1831 23.5863 8.38988 22.7923 6.75561C21.9984 5.12134 20.8438 3.68866 19.4155 2.5656C21.1857 1.17415 23.3117 0.30882 25.5505 0.0685322C27.7892 -0.171756 30.0504 0.222691 32.0756 1.20679C34.1008 2.19088 35.8082 3.72491 37.0027 5.63354C38.1973 7.54217 38.8307 9.74838 38.8306 12Z" fill="#F79E1B"/>
<path d="M37.6848 19.4345V19.0482H37.8405V18.9695H37.4438V19.0482H37.5997V19.4345H37.6848ZM38.4549 19.4345V18.9688H38.3334L38.1935 19.2891L38.0536 18.9688H37.9319V19.4345H38.0178V19.0832L38.1489 19.3861H38.238L38.3692 19.0824V19.4345H38.4549Z" fill="#F79E1B"/>
</svg>
