<svg width="22" height="22" viewBox="0 0 22 22" fill="none" xmlns="http://www.w3.org/2000/svg">
<path fill-rule="evenodd" clip-rule="evenodd" d="M7.00322 2.7073C8.25119 2.106 9.61878 1.79412 11.0041 1.79491C12.6691 1.79547 14.3033 2.24762 15.7316 3.10318C17.16 3.95879 18.3296 5.18581 19.1158 6.65358C19.902 8.12134 20.2754 9.77486 20.1961 11.438C20.1223 12.9874 19.6583 14.4911 18.8495 15.8105C18.6375 16.1564 18.5969 16.5809 18.7397 16.9607L19.896 20.0371L15.6256 19.265C15.3605 19.217 15.0871 19.2516 14.8423 19.3641C13.6515 19.9114 12.3566 20.1984 11.0444 20.2049C9.65907 20.2117 8.29006 19.9058 7.03943 19.3099C5.7888 18.714 4.68878 17.8436 3.8214 16.7634C2.95401 15.6832 2.34161 14.4212 2.02987 13.0714C1.71812 11.7216 1.71506 10.3188 2.02092 8.96765C2.32677 7.6165 2.93365 6.35181 3.79632 5.26785C4.65899 4.18389 5.75519 3.30863 7.00322 2.7073ZM11.0044 0.91797C9.48723 0.917121 7.9894 1.25871 6.62257 1.91728C5.25565 2.57589 4.05501 3.53454 3.11016 4.72177C2.16531 5.90899 1.50061 7.29417 1.16562 8.77404C0.830622 10.2539 0.833971 11.7903 1.17542 13.2687C1.51686 14.7471 2.1876 16.1294 3.13762 17.3125C4.08764 18.4956 5.29245 19.449 6.66223 20.1016C8.03201 20.7542 9.53143 21.0893 11.0487 21.0818C12.486 21.0747 13.9042 20.7603 15.2085 20.161C15.2901 20.1235 15.3812 20.1119 15.4696 20.1279L20.5003 21.0376C20.6556 21.0657 20.814 21.0081 20.915 20.8869C21.0161 20.7657 21.0443 20.5996 20.9887 20.4518L19.5606 16.6522C19.513 16.5256 19.5265 16.3841 19.5972 16.2688C20.483 14.8237 20.9912 13.1768 21.0721 11.4798C21.1589 9.65815 20.7499 7.8471 19.8888 6.23951C19.0277 4.63191 17.7467 3.28799 16.1822 2.35087C14.6178 1.41381 12.828 0.918594 11.0044 0.91797Z" fill="#222222"/>
<path d="M14.8423 19.3641C15.0871 19.2516 15.3605 19.217 15.6256 19.265L19.896 20.0371L18.7397 16.9607C18.5969 16.5809 18.6375 16.1564 18.8495 15.8105C19.6583 14.4911 20.1223 12.9874 20.1961 11.438C20.2754 9.77486 19.902 8.12134 19.1158 6.65358C18.3296 5.18581 17.16 3.95879 15.7316 3.10318C14.3033 2.24762 12.6691 1.79547 11.0041 1.79491C9.61878 1.79412 8.25119 2.106 7.00322 2.7073C5.75519 3.30863 4.65899 4.18389 3.79632 5.26785C2.93366 6.35181 2.32677 7.6165 2.02092 8.96765C1.71506 10.3188 1.71812 11.7216 2.02987 13.0714C2.34161 14.4212 2.95401 15.6832 3.8214 16.7634C4.68878 17.8436 5.7888 18.714 7.03943 19.3099C8.29006 19.9058 9.65907 20.2117 11.0444 20.2049C12.3566 20.1984 13.6515 19.9114 14.8423 19.3641ZM14.8423 19.3641L15.0254 19.7626M15.4696 20.1279C15.3812 20.1119 15.2901 20.1235 15.2085 20.161C13.9042 20.7603 12.486 21.0747 11.0487 21.0818C9.53143 21.0893 8.03201 20.7542 6.66223 20.1016C5.29245 19.449 4.08764 18.4956 3.13762 17.3125C2.1876 16.1294 1.51686 14.7471 1.17542 13.2687C0.833971 11.7903 0.830621 10.2539 1.16561 8.77404C1.50061 7.29417 2.16531 5.90899 3.11016 4.72177C4.05501 3.53454 5.25565 2.57589 6.62257 1.91728C7.9894 1.25871 9.48723 0.917121 11.0044 0.91797C12.828 0.918594 14.6178 1.41381 16.1822 2.35087C17.7467 3.28799 19.0277 4.63191 19.8888 6.23951C20.7499 7.8471 21.1589 9.65815 21.0721 11.4798C20.9912 13.1768 20.483 14.8237 19.5972 16.2688C19.5265 16.3841 19.513 16.5256 19.5606 16.6522L20.9887 20.4518C21.0443 20.5996 21.0161 20.7657 20.915 20.8869C20.814 21.0081 20.6556 21.0657 20.5003 21.0376L15.4696 20.1279ZM15.4696 20.1279L15.5476 19.6964" stroke="black" stroke-width="0.2" stroke-linecap="round" stroke-linejoin="round"/>
</svg>
