<svg width="101" height="100" viewBox="0 0 101 100" fill="none" xmlns="http://www.w3.org/2000/svg">
<circle cx="50.5" cy="50" r="50" fill="#E9EBED"/>
<rect x="28.5" y="27" width="44" height="47" rx="4" fill="white"/>
<path fill-rule="evenodd" clip-rule="evenodd" d="M38.7197 44.4989C38.7197 43.986 39.1355 43.5703 39.6483 43.5703H61.934C62.4468 43.5703 62.8626 43.986 62.8626 44.4989C62.8626 45.0117 62.4468 45.4275 61.934 45.4275H39.6483C39.1355 45.4275 38.7197 45.0117 38.7197 44.4989Z" fill="#222222"/>
<path fill-rule="evenodd" clip-rule="evenodd" d="M41.5059 44.4989C41.5059 43.986 41.9216 43.5703 42.4344 43.5703H59.1487C59.6616 43.5703 60.0773 43.986 60.0773 44.4989V61.2132C60.0773 61.952 59.7838 62.6605 59.2614 63.183C58.7389 63.7054 58.0304 63.9989 57.2916 63.9989H44.2916C43.5528 63.9989 42.8442 63.7054 42.3218 63.183C41.7994 62.6605 41.5059 61.952 41.5059 61.2132V44.4989ZM43.363 45.4275V61.2132C43.363 61.4594 43.4608 61.6956 43.635 61.8698C43.8091 62.0439 44.0453 62.1417 44.2916 62.1417H57.2916C57.5378 62.1417 57.774 62.0439 57.9482 61.8698C58.1223 61.6956 58.2201 61.4594 58.2201 61.2132V45.4275H43.363Z" fill="#222222"/>
<path fill-rule="evenodd" clip-rule="evenodd" d="M50.7912 39.8571C49.8061 39.8571 48.8613 40.2485 48.1648 40.945C47.4682 41.6416 47.0769 42.5863 47.0769 43.5714V44.5C47.0769 45.0128 46.6611 45.4286 46.1483 45.4286C45.6355 45.4286 45.2197 45.0128 45.2197 44.5V43.5714C45.2197 42.0938 45.8067 40.6767 46.8516 39.6318C47.8964 38.587 49.3135 38 50.7912 38C52.2688 38 53.6859 38.587 54.7308 39.6318C55.7756 40.6767 56.3626 42.0938 56.3626 43.5714V44.5C56.3626 45.0128 55.9468 45.4286 55.434 45.4286C54.9212 45.4286 54.5054 45.0128 54.5054 44.5V43.5714C54.5054 42.5863 54.1141 41.6416 53.4176 40.945C52.721 40.2485 51.7762 39.8571 50.7912 39.8571Z" fill="#222222"/>
<path fill-rule="evenodd" clip-rule="evenodd" d="M48.0057 47.2852C48.5186 47.2852 48.9343 47.7009 48.9343 48.2137V58.428C48.9343 58.9408 48.5186 59.3566 48.0057 59.3566C47.4929 59.3566 47.0771 58.9408 47.0771 58.428V48.2137C47.0771 47.7009 47.4929 47.2852 48.0057 47.2852Z" fill="#222222"/>
<path fill-rule="evenodd" clip-rule="evenodd" d="M53.577 47.2852C54.0898 47.2852 54.5056 47.7009 54.5056 48.2137V58.428C54.5056 58.9408 54.0898 59.3566 53.577 59.3566C53.0642 59.3566 52.6484 58.9408 52.6484 58.428V48.2137C52.6484 47.7009 53.0642 47.2852 53.577 47.2852Z" fill="#222222"/>
<rect x="60.791" y="22" width="20" height="19.2308" rx="4" fill="#FF0000"/>
<path d="M69.6854 35.1711H71.1968C71.1047 32.0098 74.791 32.3633 74.791 28.77C74.791 26.5512 73.1506 25 70.8098 25C68.3952 25 66.7548 26.7279 66.7916 29.3198H68.2846C68.2477 27.6311 69.2431 26.4334 70.8098 26.4334C72.1921 26.4334 73.1875 27.4544 73.1875 28.77C73.1875 31.5975 69.5195 31.2637 69.6854 35.1711ZM69.4089 37.9004C69.4089 38.5288 69.8513 39 70.4411 39C71.0494 39 71.4917 38.5288 71.4917 37.9004C71.4917 37.2525 71.0494 36.7812 70.4411 36.7812C69.8513 36.7812 69.4089 37.2525 69.4089 37.9004Z" fill="white"/>
</svg>
