<svg width="101" height="100" viewBox="0 0 101 100" fill="none" xmlns="http://www.w3.org/2000/svg">
<circle cx="50.5" cy="50" r="50" fill="#E9EBED"/>
<rect x="26.5" y="26" width="48" height="48" rx="24" fill="#222222"/>
<g clip-path="url(#clip0_3526_39443)">
<path fill-rule="evenodd" clip-rule="evenodd" d="M43.2853 40.2143C43.058 40.2143 42.8399 40.3046 42.6792 40.4653C42.5185 40.6261 42.4282 40.8441 42.4282 41.0714V59.9286C42.4282 60.1559 42.5185 60.3739 42.6792 60.5347C42.8399 60.6954 43.058 60.7857 43.2853 60.7857H58.7139C58.9412 60.7857 59.1592 60.6954 59.32 60.5347C59.4807 60.3739 59.571 60.1559 59.571 59.9286V48.2836L51.5017 40.2143H43.2853ZM41.467 39.2532C41.9493 38.7709 42.6033 38.5 43.2853 38.5H51.8567C52.0841 38.5 52.3021 38.5903 52.4628 38.7511L61.0342 47.3225C61.195 47.4832 61.2853 47.7012 61.2853 47.9286V59.9286C61.2853 60.6106 61.0144 61.2646 60.5321 61.7468C60.0499 62.2291 59.3959 62.5 58.7139 62.5H43.2853C42.6033 62.5 41.9493 62.2291 41.467 61.7468C40.9848 61.2646 40.7139 60.6106 40.7139 59.9286V41.0714C40.7139 40.3894 40.9848 39.7354 41.467 39.2532Z" fill="white"/>
<path fill-rule="evenodd" clip-rule="evenodd" d="M45.8564 46.2126C45.8564 45.7392 46.2402 45.3555 46.7136 45.3555H50.1422C50.6155 45.3555 50.9993 45.7392 50.9993 46.2126C50.9993 46.686 50.6155 47.0698 50.1422 47.0698H46.7136C46.2402 47.0698 45.8564 46.686 45.8564 46.2126Z" fill="white"/>
<path fill-rule="evenodd" clip-rule="evenodd" d="M45.8564 51.3571C45.8564 50.8838 46.2402 50.5 46.7136 50.5H55.285C55.7584 50.5 56.1422 50.8838 56.1422 51.3571C56.1422 51.8305 55.7584 52.2143 55.285 52.2143H46.7136C46.2402 52.2143 45.8564 51.8305 45.8564 51.3571Z" fill="white"/>
<path fill-rule="evenodd" clip-rule="evenodd" d="M45.8564 56.5017C45.8564 56.0283 46.2402 55.6445 46.7136 55.6445H55.285C55.7584 55.6445 56.1422 56.0283 56.1422 56.5017C56.1422 56.9751 55.7584 57.3588 55.285 57.3588H46.7136C46.2402 57.3588 45.8564 56.9751 45.8564 56.5017Z" fill="white"/>
</g>
<defs>
<clipPath id="clip0_3526_39443">
<rect width="24" height="24" fill="white" transform="translate(39 38.5)"/>
</clipPath>
</defs>
</svg>
