<svg width="101" height="100" viewBox="0 0 101 100" fill="none" xmlns="http://www.w3.org/2000/svg">
<circle cx="50.5" cy="50" r="50" fill="#E9EBED"/>
<rect x="26.5" y="26" width="48" height="48" rx="24" fill="#222222"/>
<path fill-rule="evenodd" clip-rule="evenodd" d="M47.3395 48.0595C47.9609 48.6868 47.9562 49.6991 47.3289 50.3205L42.1975 55.4039L42.2022 55.4085L45.5962 58.8025L50.6796 53.6712C51.301 53.0439 52.3133 53.0392 52.9405 53.6606C53.5678 54.282 53.5726 55.2943 52.9512 55.9215L47.8671 61.0536C47.5698 61.3533 47.2155 61.5918 46.8259 61.7542C46.4362 61.9165 46.0183 62.0001 45.5962 62.0001C45.1741 62.0001 44.7561 61.9165 44.3665 61.7542C43.978 61.5923 43.6253 61.3553 43.3286 61.0569L39.9432 57.6715C39.6447 57.3748 39.4078 57.0221 39.2459 56.6336C39.0836 56.2439 39 55.826 39 55.4039C39 54.9818 39.0836 54.5638 39.2459 54.1742C39.4082 53.7846 39.6461 53.4309 39.9458 53.1336L45.0785 48.0489C45.7058 47.4275 46.7181 47.4322 47.3395 48.0595Z" fill="white"/>
<path fill-rule="evenodd" clip-rule="evenodd" d="M55.1742 38.2459C55.5638 38.0836 55.9818 38 56.4039 38C56.826 38 57.2439 38.0836 57.6336 38.2459C58.0232 38.4082 58.3769 38.6461 58.6741 38.9458L58.6775 38.9493L62.0138 42.3334C62.3099 42.6291 62.5452 42.9801 62.7062 43.3665C62.8685 43.7561 62.9521 44.1741 62.9521 44.5962C62.9521 45.0183 62.8685 45.4362 62.7062 45.8259C62.5443 46.2144 62.3074 46.5671 62.0089 46.8638L56.9269 51.9459C56.3025 52.5702 55.2902 52.5702 54.6659 51.9459C54.0415 51.3215 54.0415 50.3092 54.6659 49.6849L59.7546 44.5962L59.7418 44.5835L56.4039 41.1975L51.3205 46.3289C50.6991 46.9562 49.6868 46.9609 49.0595 46.3395C48.4322 45.7181 48.4275 44.7058 49.0489 44.0785L54.133 38.9465C54.4302 38.6468 54.7846 38.4082 55.1742 38.2459Z" fill="white"/>
<path fill-rule="evenodd" clip-rule="evenodd" d="M55.3284 45.6675C55.9528 46.2918 55.9528 47.3041 55.3284 47.9285L48.9334 54.3235C48.309 54.9479 47.2967 54.9479 46.6724 54.3235C46.048 53.6992 46.048 52.6869 46.6724 52.0625L53.0674 45.6675C53.6918 45.0431 54.7041 45.0431 55.3284 45.6675Z" fill="white"/>
</svg>
