<svg width="28" height="29" viewBox="0 0 28 29" fill="none" xmlns="http://www.w3.org/2000/svg">
<path d="M16.2523 22.8307L15.0494 21.1255C15.0072 21.0661 14.9492 21.0174 14.8808 20.9841L14.8489 20.9685C14.5893 20.8356 14.3735 20.6413 14.2242 20.4058C14.0748 20.1704 13.9974 19.9025 14.0001 19.6303V5.16088C13.9999 5.03002 14.028 4.90042 14.0826 4.77949C14.1372 4.65855 14.2174 4.54866 14.3184 4.45608C14.4195 4.36351 14.5395 4.29007 14.6716 4.23996C14.8037 4.18985 14.9453 4.16406 15.0883 4.16406V4.16406C15.3541 4.16423 15.6107 4.2533 15.8099 4.41452C16.009 4.57574 16.1369 4.798 16.1695 5.03948L16.9056 10.5165C16.9056 10.5165 17.13 11.3819 17.52 11.81C18.1903 12.5458 17.7095 13.6357 18.2182 15.0707C18.8904 16.9794 21 19.3702 21 19.3702" stroke="#222222" stroke-width="1.1" stroke-linecap="round" stroke-linejoin="round"/>
<path d="M25.6665 21.4287V24.6508C25.6665 24.7873 25.6031 24.9182 25.4904 25.0147C25.3776 25.1112 25.2246 25.1654 25.0651 25.1654H16.3029C16.1513 25.1653 16.0026 25.1299 15.8727 25.063C15.7428 24.9961 15.6366 24.9002 15.5655 24.7856L15.1901 24.1809C15.1568 24.09 15.1588 23.9923 15.1956 23.9024C15.2325 23.8126 15.3023 23.7353 15.3947 23.6821C15.774 23.527 16.1727 23.4096 16.5832 23.3321C17.654 23.1168 20.704 21.7875 20.8298 19.6672C20.8298 19.6672 20.7582 19.0205 21.7666 19.5237L25.2901 20.9177C25.4031 20.9635 25.4984 21.0359 25.5651 21.1264C25.6317 21.2169 25.6669 21.3218 25.6665 21.4287Z" stroke="#222222" stroke-width="1.1" stroke-linecap="round" stroke-linejoin="round"/>
<path d="M11.7444 22.8307L12.9475 21.1255C12.9901 21.066 13.0484 21.0173 13.1171 20.9841L13.148 20.9685C13.4083 20.8361 13.6249 20.642 13.7748 20.4065C13.9247 20.171 14.0025 19.9028 13.9999 19.6303V5.16088C13.9999 4.89651 13.8852 4.64297 13.6809 4.45602C13.4766 4.26908 13.1995 4.16406 12.9106 4.16406V4.16406C12.6448 4.16426 12.3883 4.25336 12.1893 4.4146C11.9903 4.57583 11.8626 4.79808 11.8302 5.03948L11.093 10.5165C11.093 10.5165 10.8686 11.3819 10.4795 11.81C9.80816 12.5458 10.29 13.6357 9.78122 15.0707C9.10886 16.9794 7 19.3702 7 19.3702" stroke="#222222" stroke-width="1.1" stroke-linecap="round" stroke-linejoin="round"/>
<path d="M2.3335 21.4287V24.6508C2.3335 24.7873 2.39685 24.9182 2.50961 25.0147C2.62237 25.1112 2.77531 25.1654 2.93478 25.1654H11.6953C11.8471 25.1653 11.996 25.13 12.126 25.0631C12.2561 24.9962 12.3624 24.9002 12.4337 24.7856L12.8089 24.1809C12.8431 24.09 12.8416 23.9921 12.8047 23.9021C12.7677 23.812 12.6974 23.7348 12.6044 23.6821C12.2255 23.5272 11.8272 23.4097 11.4172 23.3321C10.3465 23.1168 7.29615 21.7875 7.17037 19.6672C7.17037 19.6672 7.24195 19.0205 6.23469 19.5237L2.71186 20.9177C2.59847 20.9632 2.50262 21.0355 2.43559 21.126C2.36856 21.2165 2.33314 21.3216 2.3335 21.4287V21.4287Z" stroke="#222222" stroke-width="1.1" stroke-linecap="round" stroke-linejoin="round"/>
</svg>
