<svg width="343" height="180" viewBox="0 0 343 180" fill="none" xmlns="http://www.w3.org/2000/svg">
<rect width="343" height="180" rx="8" fill="#FAFAFB"/>
<path fill-rule="evenodd" clip-rule="evenodd" d="M186.143 105.429C186.853 105.429 187.429 104.853 187.429 104.143V75.8571C187.429 75.1471 186.853 74.5714 186.143 74.5714H157.857C157.147 74.5714 156.571 75.1471 156.571 75.8571V104.143C156.571 104.853 157.147 105.429 157.857 105.429H186.143ZM190 104.143C190 106.273 188.273 108 186.143 108H157.857C155.727 108 154 106.273 154 104.143V75.8571C154 73.7269 155.727 72 157.857 72H186.143C188.273 72 190 73.7269 190 75.8571V104.143Z" fill="#E9EBED"/>
<path fill-rule="evenodd" clip-rule="evenodd" d="M154 100.286C154 99.5756 154.576 99 155.286 99H188.714C189.424 99 190 99.5756 190 100.286C190 100.996 189.424 101.571 188.714 101.571H155.286C154.576 101.571 154 100.996 154 100.286Z" fill="#E9EBED"/>
<path fill-rule="evenodd" clip-rule="evenodd" d="M176.448 86.748C176.91 86.3631 177.492 86.1523 178.094 86.1523C178.677 86.1523 179.242 86.3505 179.697 86.7133L189.462 93.7107C190.04 94.1243 190.172 94.9275 189.759 95.5047C189.345 96.0819 188.542 96.2146 187.965 95.801L178.168 88.781C178.143 88.7632 178.119 88.7446 178.095 88.7252L164.753 101.223C164.234 101.708 163.421 101.682 162.935 101.163C162.45 100.645 162.476 99.8315 162.995 99.3461L176.392 86.7975C176.41 86.7804 176.429 86.7639 176.448 86.748Z" fill="#E9EBED"/>
<path fill-rule="evenodd" clip-rule="evenodd" d="M165.572 81.0011C164.151 81.0011 163 82.1524 163 83.5725C163 84.9927 164.151 86.144 165.572 86.144C166.992 86.144 168.143 84.9927 168.143 83.5725C168.143 82.1524 166.992 81.0011 165.572 81.0011ZM160.429 83.5725C160.429 80.7322 162.731 78.4297 165.572 78.4297C168.412 78.4297 170.714 80.7322 170.714 83.5725C170.714 86.4129 168.412 88.7154 165.572 88.7154C162.731 88.7154 160.429 86.4129 160.429 83.5725Z" fill="#E9EBED"/>
</svg>
