<svg width="101" height="100" viewBox="0 0 101 100" fill="none" xmlns="http://www.w3.org/2000/svg">
<circle cx="50.5" cy="50" r="50" fill="#E9EBED"/>
<path d="M44.0961 41.2515V37.4681C44.0961 33.3853 47.4176 30.0638 51.5003 30.0638C55.5831 30.0638 58.9046 33.3853 58.9046 37.4681V41.2515C58.9213 41.2586 58.9382 41.265 58.9549 41.272C60.0116 41.7189 61.0175 42.2562 61.9684 42.8779V37.4681C61.9684 31.6959 57.2725 27 51.5003 27C45.7282 27 41.0322 31.6959 41.0322 37.4681V42.8779C41.9831 42.2563 42.9891 41.719 44.0457 41.272C44.0625 41.265 44.0793 41.2586 44.0961 41.2515Z" fill="black"/>
<path d="M51.5001 42.8281C42.6166 42.8281 35.415 50.0297 35.415 58.9132C35.415 67.7968 42.6166 74.9983 51.5001 74.9983C60.3837 74.9983 67.5853 67.7968 67.5853 58.9132C67.5853 50.0297 60.3837 42.8281 51.5001 42.8281ZM50.2289 64.4827L44.2229 58.4767L46.3894 56.3103L50.2289 60.1497L55.9515 54.4271L58.1179 56.5935L50.2289 64.4827Z" fill="black"/>
</svg>
