<svg width="101" height="100" viewBox="0 0 101 100" fill="none" xmlns="http://www.w3.org/2000/svg">
<circle cx="50.5" cy="50" r="50" fill="#E9EBED"/>
<path d="M46.9783 36.9043V42.5394C47.9689 41.8919 49.0168 41.3322 50.1174 40.8666C50.1348 40.8593 50.1524 40.8526 50.1698 40.8452V36.9043C50.1698 30.8916 45.2782 26 39.2656 26C33.2529 26 28.3613 30.8916 28.3613 36.9043V45.3117H31.5528V36.9043C31.5528 32.6514 35.0127 29.1915 39.2656 29.1915C43.5185 29.1915 46.9783 32.6514 46.9783 36.9043Z" fill="black"/>
<path d="M57.8832 42.4883C48.6295 42.4883 41.1279 49.9899 41.1279 59.2436C41.1279 68.4973 48.6295 75.9989 57.8832 75.9989C67.137 75.9989 74.6386 68.4973 74.6386 59.2436C74.6386 49.9899 67.137 42.4883 57.8832 42.4883ZM63.6379 62.7416L61.3812 64.9983L57.8832 61.5003L54.3853 64.9983L52.1286 62.7416L55.6265 59.2436L52.1286 55.7456L54.3853 53.4889L57.8832 56.9869L61.3812 53.4889L63.6379 55.7456L60.1399 59.2436L63.6379 62.7416Z" fill="black"/>
</svg>
