<svg width="101" height="100" viewBox="0 0 101 100" fill="none" xmlns="http://www.w3.org/2000/svg">
<circle cx="50.5" cy="50" r="50" fill="#E6F3FF"/>
<rect x="29.5" y="31" width="44" height="47" rx="4" fill="white"/>
<g clip-path="url(#clip0_1692_23315)">
<path d="M49.3051 61.4146L53.3574 65.4613C53.609 65.7129 53.9207 65.896 54.2629 65.9932C54.6051 66.0905 54.9665 66.0986 55.3127 66.017C55.659 65.9353 55.9786 65.7665 56.2413 65.5265C56.504 65.2866 56.701 64.9835 56.8136 64.646L63.464 44.6762C63.5868 44.3086 63.6048 43.914 63.5159 43.5368C63.427 43.1596 63.2347 42.8146 62.9606 42.5405C62.6866 42.2665 62.3416 42.0742 61.9644 41.9853C61.5871 41.8964 61.1926 41.9144 60.825 42.0372L40.8551 48.6932C40.5187 48.8062 40.2167 49.0032 39.9776 49.2654C39.7385 49.5276 39.5702 49.8465 39.4886 50.1919C39.4069 50.5373 39.4147 50.8978 39.5112 51.2393C39.6077 51.5808 39.7896 51.8921 40.0399 52.1438L45.1303 57.2398L44.9576 63.6748L49.3051 61.4146Z" stroke="#0085FF" stroke-width="1.71429" stroke-linecap="round" stroke-linejoin="round"/>
<path d="M62.8675 42.4531L45.1299 57.2397" stroke="#0085FF" stroke-width="1.71429" stroke-linecap="round" stroke-linejoin="round"/>
</g>
<rect x="20.5" y="22" width="18.7969" height="18.7969" rx="9.39844" fill="#0085FF"/>
<path fill-rule="evenodd" clip-rule="evenodd" d="M34.565 28.495C34.8709 28.8009 34.8709 29.2968 34.565 29.6026L28.691 35.4767C28.3852 35.7825 27.8893 35.7825 27.5834 35.4767L24.6464 32.5396C24.3405 32.2338 24.3405 31.7379 24.6464 31.432C24.9522 31.1262 25.4481 31.1262 25.754 31.432L28.1372 33.8152L33.4574 28.495C33.7633 28.1892 34.2592 28.1892 34.565 28.495Z" fill="white"/>
<defs>
<clipPath id="clip0_1692_23315">
<rect width="26" height="26" fill="white" transform="translate(38.5 41)"/>
</clipPath>
</defs>
</svg>
