<svg width="100" height="100" viewBox="0 0 100 100" fill="none" xmlns="http://www.w3.org/2000/svg">
<circle cx="50" cy="50" r="50" fill="#E9EBED"/>
<g filter="url(#filter0_d_3526_37932)">
<rect x="32" y="30" width="35.5556" height="40" rx="3" fill="#222222"/>
</g>
<path d="M55.611 45.806V47.6208C55.2308 47.569 54.7987 47.543 54.3147 47.5344V45.806C54.3147 43.0838 53.5456 41.269 49.7777 41.269C46.0098 41.269 45.2406 43.0838 45.2406 45.806V47.5344C44.7567 47.543 44.3246 47.569 43.9443 47.6208V45.806C43.9443 43.2998 44.5493 39.9727 49.7777 39.9727C55.0061 39.9727 55.611 43.2998 55.611 45.806Z" fill="white"/>
<path d="M55.6111 47.6177C55.2308 47.5658 54.7987 47.5399 54.3148 47.5312H45.2407C44.7567 47.5399 44.3246 47.5658 43.9444 47.6177C41.7407 47.8856 41.1357 48.9658 41.1357 51.8522V53.5806C41.1357 57.0374 41.9999 57.9016 45.4567 57.9016H54.0987C57.5555 57.9016 58.4197 57.0374 58.4197 53.5806V51.8522C58.4197 48.9658 57.8148 47.8856 55.6111 47.6177ZM46.9345 53.33C46.7703 53.4856 46.5456 53.5806 46.3209 53.5806C46.2086 53.5806 46.0962 53.5547 45.9925 53.5115C45.8802 53.4683 45.7938 53.4078 45.7073 53.33C45.5518 53.1658 45.4567 52.9411 45.4567 52.7164C45.4567 52.6041 45.4827 52.4917 45.5259 52.388C45.5691 52.2843 45.6296 52.1893 45.7073 52.1029C45.7938 52.0251 45.8802 51.9646 45.9925 51.9214C46.3123 51.7831 46.6925 51.8609 46.9345 52.1029C47.0123 52.1893 47.0728 52.2843 47.116 52.388C47.1592 52.4917 47.1851 52.6041 47.1851 52.7164C47.1851 52.9411 47.0901 53.1658 46.9345 53.33ZM50.5728 53.0448C50.5296 53.1485 50.4691 53.2436 50.3913 53.33C50.2271 53.4856 50.0024 53.5806 49.7777 53.5806C49.5444 53.5806 49.3283 53.4856 49.1641 53.33C49.0864 53.2436 49.0259 53.1485 48.9827 53.0448C48.9394 52.9411 48.9135 52.8288 48.9135 52.7164C48.9135 52.4831 49.0086 52.2671 49.1641 52.1029C49.4839 51.7831 50.0629 51.7831 50.3913 52.1029C50.5469 52.2671 50.6419 52.4831 50.6419 52.7164C50.6419 52.8288 50.616 52.9411 50.5728 53.0448ZM53.8481 53.33C53.6839 53.4856 53.4592 53.5806 53.2345 53.5806C53.0098 53.5806 52.7851 53.4856 52.6209 53.33C52.4654 53.1658 52.3703 52.9498 52.3703 52.7164C52.3703 52.4831 52.4654 52.2671 52.6209 52.1029C52.9493 51.7831 53.5283 51.7831 53.8481 52.1029C53.8827 52.1461 53.9172 52.1893 53.9518 52.2411C53.9864 52.2843 54.0123 52.3362 54.0296 52.388C54.0555 52.4399 54.0728 52.4917 54.0814 52.5436C54.0901 52.6041 54.0987 52.6646 54.0987 52.7164C54.0987 52.9411 54.0036 53.1658 53.8481 53.33Z" fill="white"/>
<defs>
<filter id="filter0_d_3526_37932" x="20" y="26" width="51.5557" height="56" filterUnits="userSpaceOnUse" color-interpolation-filters="sRGB">
<feFlood flood-opacity="0" result="BackgroundImageFix"/>
<feColorMatrix in="SourceAlpha" type="matrix" values="0 0 0 0 0 0 0 0 0 0 0 0 0 0 0 0 0 0 127 0" result="hardAlpha"/>
<feOffset dx="-4" dy="4"/>
<feGaussianBlur stdDeviation="4"/>
<feComposite in2="hardAlpha" operator="out"/>
<feColorMatrix type="matrix" values="0 0 0 0 0.0666667 0 0 0 0 0.0941177 0 0 0 0 0.152941 0 0 0 0.29 0"/>
<feBlend mode="normal" in2="BackgroundImageFix" result="effect1_dropShadow_3526_37932"/>
<feBlend mode="normal" in="SourceGraphic" in2="effect1_dropShadow_3526_37932" result="shape"/>
</filter>
</defs>
</svg>
