<svg width="101" height="100" viewBox="0 0 101 100" fill="none" xmlns="http://www.w3.org/2000/svg">
<circle cx="50.5" cy="50" r="50" fill="#E9EBED"/>
<rect x="28.5" y="27" width="44" height="47" rx="4" fill="white"/>
<path fill-rule="evenodd" clip-rule="evenodd" d="M50.7912 41.8709C48.7399 41.8709 47.077 43.5338 47.077 45.5852C47.077 47.6365 48.7399 49.2995 50.7912 49.2995C52.8426 49.2995 54.5055 47.6365 54.5055 45.5852C54.5055 43.5338 52.8426 41.8709 50.7912 41.8709ZM45.8389 45.5852C45.8389 42.8501 48.0561 40.6328 50.7912 40.6328C53.5264 40.6328 55.7436 42.8501 55.7436 45.5852C55.7436 48.3203 53.5264 50.5376 50.7912 50.5376C48.0561 50.5376 45.8389 48.3203 45.8389 45.5852Z" fill="#222222"/>
<path fill-rule="evenodd" clip-rule="evenodd" d="M48.6243 54.8709C47.6392 54.8709 46.6944 55.2622 45.9979 55.9588C45.3013 56.6554 44.91 57.6001 44.91 58.5852V60.1328H56.6719V58.5852C56.6719 57.6001 56.2805 56.6554 55.584 55.9588C54.8874 55.2622 53.9427 54.8709 52.9576 54.8709H48.6243ZM45.1224 55.0833C46.0511 54.1546 47.3108 53.6328 48.6243 53.6328H52.9576C54.271 53.6328 55.5307 54.1546 56.4595 55.0833C57.3882 56.0121 57.91 57.2717 57.91 58.5852V60.7519C57.91 61.0938 57.6328 61.3709 57.2909 61.3709H44.2909C43.949 61.3709 43.6719 61.0938 43.6719 60.7519V58.5852C43.6719 57.2717 44.1936 56.0121 45.1224 55.0833Z" fill="#222222"/>
<rect x="20.5" y="22" width="18.7969" height="18.7969" rx="9.39844" fill="#222222"/>
<path fill-rule="evenodd" clip-rule="evenodd" d="M34.565 28.495C34.8709 28.8009 34.8709 29.2968 34.565 29.6026L28.691 35.4767C28.3852 35.7825 27.8893 35.7825 27.5834 35.4767L24.6464 32.5396C24.3405 32.2338 24.3405 31.7379 24.6464 31.432C24.9522 31.1262 25.4481 31.1262 25.754 31.432L28.1372 33.8152L33.4574 28.495C33.7633 28.1892 34.2592 28.1892 34.565 28.495Z" fill="white"/>
</svg>
